<svg width="32" height="32" xmlns="http://www.w3.org/2000/svg">
    <g>
        <path fill="#fff" d="m234.02512,294.29707c0,0 -10.1756,-1.12088 -15.56458,-5.40593c-5.38898,-4.28511 -7.90382,-9.7486 -7.90382,-9.7486c0,0 2.8281,4.71251 6.7968,8.28311c2.4196,2.17686 5.26333,3.92934 8.14864,3.92934c0,0 -4.45468,-3.74937 -7.79611,-1.07137c0,0 2.40713,-2.46391 6.5746,-0.58917c4.16772,1.87468 6.25119,0.80332 6.25119,0.80332c0,0 -7.04133,-0.05354 -10.09525,-3.05313c-3.05395,-2.99959 -3.80845,-4.7133 -3.80845,-4.7133c0,0 3.16166,4.87427 5.60468,5.46349c2.44302,0.58922 6.64642,-0.10744 6.64642,-0.10744c0,0 -4.347,0.16098 -5.71239,-0.74983c-1.36515,-0.91034 -6.75413,-2.73154 -7.72405,1.07137c0,0 1.07763,-4.01742 5.9996,-2.83898c4.92197,1.17844 5.38926,0.80374 5.38926,0.80374c0,0 -8.73042,-5.0353 -13.61646,-2.19627c-4.88608,2.83898 -4.5627,5.24935 -4.5627,5.24935c0,0 0.32341,-8.35601 12.2511,-6.8564c0,0 -5.56851,-1.23198 -7.61662,-3.69583c-2.04755,-2.46391 -2.19143,-4.07059 -2.19143,-4.07059c0,0 2.33507,5.30252 5.20945,5.35605c2.87414,0.0539 3.70046,-0.32117 3.70046,-0.32117c0,0 -5.60465,-1.92822 -8.26337,-1.50003c-2.65848,0.42866 -6.96955,1.8212 -9.23308,-4.28505c0,0 2.11965,5.83862 7.9041,3.80332c5.78418,-2.03566 9.41257,0.2141 9.41257,0.2141c0,0 -8.76606,-2.51744 -10.56254,-5.03483c-1.79623,-2.51744 -2.01165,-6.85645 -2.01165,-6.85645c0,0 0.7545,7.28464 4.45468,7.98136c3.70074,0.69624 9.30514,0.53527 10.77825,3.05307c0,0 -3.70046,-4.07096 -7.5448,-3.53527c-3.84406,0.53568 -9.77212,7.9274 -12.7899,5.99918c-3.01774,-1.92822 -4.38314,-0.32154 -4.38314,-0.32154c0,0 1.25768,-1.87468 3.41294,-1.01788c2.15582,0.85727 2.62283,2.14274 6.32329,-1.66017c3.70046,-3.80291 9.98758,-8.51657 13.97552,-4.44603c0,0 -18.63367,-7.69467 -20.64533,-23.33496c0,0 1.77151,10.42815 10.87317,15.0697c9.10194,4.64155 9.62852,4.28511 9.62852,4.28511c0,0 -14.03508,-2.21448 -20.59795,-21.06888c0,0 5.70014,14.64103 14.56246,16.56926c0,0 -7.47298,-3.85639 -13.26941,-15.64023c-5.79563,-11.78426 -6.03605,-15.71282 -6.03605,-15.71282c0,0 7.04239,18.85434 20.35967,22.21157c0,0 -10.43141,-4.44682 -17.90415,-18.64103c-7.4727,-14.19421 -5.13739,-16.97965 -5.13739,-16.97965c0,0 -1.61671,-5.08842 -0.39548,-6.21333c0,0 -2.40713,-4.07096 -1.72442,-7.39172c0,0 1.72442,12.58716 10.52665,20.83615c8.8022,8.24857 9.5567,9.2664 9.5567,9.2664c0,0 -9.12561,-9.31994 -11.99976,-13.81951c-2.87414,-4.4992 -6.10759,-7.98094 -7.97589,-17.62205c0,0 1.79651,9.53403 7.47298,16.0689c5.67622,6.53486 6.79027,6.42742 6.79027,6.42742c0,0 -11.64045,-8.89133 -14.40685,-23.62122c0,0 1.61671,10.87345 14.44278,21.26476c0,0 -12.86196,-11.30206 -14.44278,-23.35396c0,0 -0.28724,-1.76761 0.25156,-2.62446c0,0 -0.64679,-2.30335 -0.43109,-5.19586c0.21542,-2.89215 0.46701,-5.99876 0.46701,-5.99876c0,0 -0.57472,12.21245 7.40092,21.63947c0,0 -9.41285,-16.81988 -6.05919,-30.67429c0,0 -0.71913,7.64187 1.53242,11.14109c0,0 -1.91645,-6.14116 -1.00584,-13.35484c0,0 -0.23986,7.64192 2.15554,14.56934c2.39543,6.92742 10.05964,20.35395 10.05964,20.35395c0,0 -9.0054,-15.7124 -10.44261,-24.56804c-1.43693,-8.85564 -0.62312,-14.6403 -0.62312,-14.6403c0,0 -0.81381,8.2839 2.68292,16.56889c3.49673,8.28468 4.69457,9.21292 4.69457,9.21292c0,0 -9.62904,-14.92698 -5.98868,-31.49545c0,0 -0.23909,16.78298 3.73663,23.9963c3.97649,7.21363 5.17328,7.42777 5.17328,7.42777c0,0 -8.19131,-9.64153 -7.90407,-23.13944c0.28773,-13.49797 1.8212,-14.21206 1.8212,-14.21206c0,0 -3.40177,11.42583 2.05903,22.42494c5.46105,10.99911 4.35947,8.92739 4.35947,8.92739c0,0 -7.75994,-14.99753 -6.22699,-26.71041c1.53295,-11.71283 4.45468,-11.5697 4.45468,-11.5697c0,0 -3.20897,3.14194 -3.06537,10.3552c0.14364,7.21331 4.74244,21.21122 4.74244,21.21122c0,0 -5.12594,-19.21083 -3.7366,-25.13905c1.38882,-5.9278 4.31135,-7.71289 4.31135,-7.71289c0,0 -5.70123,4.85648 -2.39596,17.85477c0,0 -2.05952,-12.35443 3.44887,-18.13946c0,0 -3.92757,5.57094 -2.29914,15.92618c0,0 -0.47899,-12.71323 4.74216,-17.0693c0,0 -3.35232,3.92861 -3.40047,11.85596c0,0 0.71861,-7.99952 4.69408,-12.49872c0,0 -3.01803,6.85603 -2.82603,16.71165c0,0 2.25155,-9.71171 3.35366,-16.854c0,0 0.19098,3.85681 -0.62312,8.64112c-0.81409,4.78505 -1.19731,5.21329 -1.19731,5.21329c0,0 2.92173,-6.42742 3.06561,-12.71208c0,0 0.14364,6.14231 -1.10158,11.28464c0,0 2.37176,-2.84327 2.67045,-9.14342c0.00467,-0.09389 0.00832,-0.18856 0.01194,-0.28396c0,0 0.67021,9.21208 -1.77281,16.99713c-2.44302,7.78542 -3.59275,8.49914 -3.59275,8.49914c0,0 5.41371,-7.64229 6.2278,-18.21163c0,0 0.09573,5.92701 -1.3412,11.06897c-1.43697,5.14227 -2.97016,9.07088 -2.97016,9.07088c0,0 7.23308,-9.78539 6.03577,-27.35311c0,0 1.38882,9.78345 0.14364,17.21123c-1.24522,7.42777 -7.37753,18.85439 -7.37753,18.85439c0,0 9.53331,-12.5701 9.96415,-32.49544c0,0 1.14973,11.78384 -3.23345,22.49632c0,0 6.46689,-10.92662 6.32329,-21.31793c0,0 1.43721,5.24898 0.21542,12.4266c-1.22126,7.17757 -7.04133,23.9963 -13.07738,28.06725c0,0 16.38265,-13.1768 15.30498,-35.78014c0,0 1.79623,10.28387 -0.43109,20.24693c-2.22736,9.96264 -10.70643,25.17469 -10.70643,25.17469c0,0 12.14336,-16.71165 13.93987,-34.92365c0,0 0.57472,-5.57015 -0.14388,-8.89133c0,0 2.94621,1.92822 3.16163,10.17721c0.21542,8.24857 -2.65844,19.39002 -4.67038,27.20998c-2.01193,7.82033 -6.32301,18.21163 -6.32301,18.21163c0,0 14.01141,-31.9237 11.99923,-47.56435c0,0 3.59299,6.74896 3.16163,15.53363c-0.43084,8.7842 -3.44887,33.20916 -11.85563,44.24317c0,0 9.05355,-10.71248 11.56839,-30.20957c0,0 1.29333,-10.39131 1.07766,-16.06932c0,0 1.79623,11.99836 1.14969,20.99713c-0.64654,8.99877 -7.40092,29.13862 -7.40092,29.13862c0,0 7.40092,-16.81909 7.90382,-27.31747c0,0 0.79042,6.32035 0.2157,12.10543c-0.57472,5.78466 -3.87999,16.60458 -6.68259,22.92493c0,0 5.89217,-12.6407 7.11368,-18.21163c1.22155,-5.57057 1.00584,-8.78425 1.00584,-8.78425c0,0 1.43721,17.35478 -0.86221,25.49627c-2.29942,8.1415 -9.55645,20.24693 -10.05936,25.92452c0,0 3.37705,-13.17638 10.70615,-15.21204c7.3291,-2.0353 11.49657,1.07137 11.49657,1.07137c0,0 -11.13727,-5.35642 -17.10125,4.71366c0,0 -3.01774,5.46349 -3.08981,10.39131c0,0 7.76047,-8.1415 8.98173,-19.283c1.22176,-11.14109 6.89826,-12.85521 6.89826,-12.85521c0,0 -6.32329,3.53527 -6.25147,13.1768c0.07182,9.64147 -7.1855,20.99671 -8.90991,20.67554c0,0 5.89217,-2.46391 7.97589,-9.85562c0,0 -1.36539,7.49874 -4.31107,11.83738c-2.94621,4.33859 -1.97629,6.21327 -1.97629,6.21327c0,0 1.00609,-4.65976 3.95205,-8.57016c2.94621,-3.90998 6.82616,-10.65894 6.86209,-15.21204c0.03589,-4.55269 3.23345,-9.10579 3.23345,-9.10579c0,0 -2.51484,4.7672 -2.62283,8.1954c-0.10771,3.42783 0.25159,8.78425 -3.95177,13.28382c-4.20364,4.4992 -5.96399,12.58721 -5.89217,16.12243c0,0 2.93423,-12.62322 11.55694,-15.12245c0,0 -8.23974,2.42785 -11.16146,16.28346c0,0 5.46052,-13.85483 12.742,-17.49718c0,0 -7.76018,4.92781 -11.49657,16.99755c0,0 2.20344,-8.57131 9.10117,-8.92775c0,0 -5.74829,1.14233 -8.09505,9.21286c0,0 1.05368,-3.42705 4.98181,-4.64155c3.9281,-1.2145 7.23284,-5.42822 6.41874,-9.42816c0,0 1.00584,5.56978 -4.11932,9.28425c-5.12569,3.71446 -7.27916,12.60877 -7.27916,12.60877c0,0 4.17386,5.89184 7.54849,10.85686c-0.26641,2.78042 -1.18643,3.54548 -2.04252,3.8397c-0.3061,0.10519 -7.45216,-11.87605 -7.85933,-12.11475l0.00002,-0.00001z" id="svg_2" stroke="#000" transform="rotate(-24.6642 220.432 227.913)"/>
        <path fill="#fff" stroke="#000" d="m296.3767,144.86817c-18.77853,-13.49876 -39.0322,-24.31211 -55.64646,-25.78629c-0.90447,-0.09562 -1.84124,-0.1514 -2.83185,-0.16734l-109.344,0c-1.74434,0 -3.46714,0.50202 -4.69463,1.43434c-1.21673,0.90842 -1.93815,2.18339 -1.93815,3.48227l0,205.19069c0,1.29091 0.67835,2.52604 1.93815,3.46633c1.2598,0.92435 2.91799,1.42637 4.69463,1.42637l197.73444,0c1.74434,0 3.4133,-0.49405 4.6731,-1.42637c1.2598,-0.93232 1.95969,-2.16745 1.95969,-3.46633l0,-136.54146c-0.38763,-15.84949 -17.1634,-33.13332 -36.54491,-47.61221l-0.00001,0zm23.25781,179.22112l-184.46888,0l0,-195.37341l102.74352,0l0,0.01594c4.47928,-0.19921 8.34482,3.07587 11.30588,10.56632c2.69188,7.13187 3.37023,16.43119 3.35946,22.87777c0.02154,4.72536 -0.29072,7.89685 -0.29072,7.89685l-0.52761,5.19551l7.06348,0.05578c0.0323,0 16.32354,0.14343 32.30251,2.82884c15.35446,2.45432 27.36023,7.34702 28.48005,12.88518c0.04307,0.49405 0.05384,0.9881 0.04307,1.45028l0,131.60094l-0.01077,0l0.00001,0z" id="svg_3"/>
        <path stroke="#000" id="svg_9" d="m7.51251,26.12583c0.79036,-2.45104 1.87214,-4.52682 2.89827,-5.56135c1.09934,-1.10834 0.6116,-1.5891 -0.52246,-0.51499c-0.47711,0.45189 -0.61343,0.12377 -0.61343,-1.47655c0,-3.81824 2.08977,-6.18086 7.11786,-8.04719c4.25451,-1.5792 7.39117,-3.35511 8.6917,-4.92107l1.05977,-1.27607l0,2.22023c0,2.74535 -0.89928,6.8929 -1.8947,8.73852c-1.05596,1.95788 -4.6754,5.57184 -6.45151,6.44175c-1.59124,0.77937 -4.98963,1.00881 -6.8059,0.4595c-0.90513,-0.27374 -1.19238,-0.06459 -1.66137,1.20964c-0.31186,0.84733 -0.56703,2.05278 -0.56703,2.67878c0,0.71068 -0.30094,1.13817 -0.80124,1.13817c-0.5942,0 -0.71047,-0.28149 -0.44996,-1.08938l0,0z" fill="#fff"/>
    </g>
</svg>